<?xml version="1.0" standalone="no"?>
<!DOCTYPE svg PUBLIC "-//W3C//DTD SVG 20010904//EN"
 "http://www.w3.org/TR/2001/REC-SVG-20010904/DTD/svg10.dtd">
<svg version="1.0" xmlns="http://www.w3.org/2000/svg"
 width="512.000000pt" height="512.000000pt" viewBox="0 0 512.000000 512.000000"
 preserveAspectRatio="xMidYMid meet">

<g transform="translate(0.000000,512.000000) scale(0.100000,-0.100000)"
fill="#000000" stroke="none">
<path d="M1190 5112 c-8 -4 -36 -20 -62 -35 -25 -15 -61 -32 -80 -38 -18 -5
-146 -14 -284 -19 -138 -5 -273 -14 -300 -21 -174 -42 -290 -158 -333 -333
-17 -70 -15 -256 4 -351 9 -44 17 -118 18 -165 2 -73 6 -92 29 -131 33 -55 77
-95 136 -121 l42 -19 0 -189 c0 -109 -4 -190 -9 -190 -5 0 -30 -20 -54 -45
-58 -58 -74 -107 -81 -260 -4 -72 -13 -138 -23 -165 -21 -58 -22 -200 -1 -256
12 -35 13 -91 6 -399 -9 -395 -9 -397 51 -410 33 -7 66 6 80 34 6 10 13 131
17 269 l7 251 99 -132 c128 -171 184 -204 283 -163 l34 15 98 -132 c54 -73
119 -154 144 -182 l47 -50 19 -303 c10 -167 17 -305 14 -308 -2 -2 -175 -4
-383 -4 l-378 0 0 225 c0 212 -1 226 -20 245 -25 25 -71 26 -101 1 -24 -19
-24 -22 -29 -253 -5 -253 -2 -289 29 -322 20 -21 21 -32 23 -570 l3 -548 24
-19 c30 -25 62 -24 95 2 l26 20 0 535 0 534 215 0 215 0 0 -28 c0 -15 -16
-233 -35 -482 -42 -552 -42 -550 -12 -578 44 -41 109 -17 121 45 2 15 22 256
42 536 l38 507 28 0 c23 0 28 -5 32 -32 3 -18 22 -256 42 -528 26 -359 40
-501 50 -517 29 -45 103 -39 125 11 8 18 1 153 -29 551 l-40 528 25 20 c53 42
54 56 32 392 -11 169 -18 310 -15 312 3 3 200 28 438 55 387 44 437 48 473 36
22 -7 76 -13 120 -13 70 0 89 4 143 31 54 26 65 29 80 18 30 -24 142 -54 196
-53 28 0 69 6 91 13 39 11 40 11 76 -25 47 -47 55 -48 469 -95 179 -20 327
-38 329 -40 2 -2 -4 -127 -14 -278 -9 -151 -14 -285 -10 -297 4 -13 22 -37 39
-52 l30 -29 -37 -501 c-21 -276 -37 -519 -37 -539 0 -65 76 -102 120 -58 11
11 22 30 24 42 5 25 77 988 76 1026 0 18 5 22 30 22 25 0 30 -4 34 -32 3 -18
22 -256 42 -528 26 -356 40 -501 50 -517 29 -46 103 -39 125 11 9 18 3 141
-25 507 -20 266 -38 501 -41 522 l-5 37 215 0 215 0 0 -514 c0 -349 4 -523 11
-545 19 -54 79 -69 117 -28 l22 23 0 541 c0 478 2 542 16 554 8 7 22 26 31 43
14 27 15 90 4 631 -6 330 -14 650 -17 712 l-5 112 63 -5 c56 -5 69 -3 118 23
141 74 199 258 178 564 -11 162 -49 233 -150 283 -49 25 -61 26 -205 26 l-153
0 0 201 c0 198 0 201 23 219 13 10 36 42 52 72 55 98 37 225 -45 313 -23 26
-28 41 -33 105 -16 233 -174 428 -392 485 -74 19 -203 19 -274 0 -172 -45
-318 -184 -372 -354 -19 -58 -22 -96 -26 -306 -3 -186 -8 -248 -19 -276 -12
-28 -15 -66 -12 -167 3 -126 4 -132 33 -173 53 -75 83 -84 285 -84 96 0 190 4
208 9 l32 9 0 -39 c0 -36 -4 -41 -45 -63 -52 -28 -115 -93 -143 -148 -30 -60
-40 -123 -53 -337 l-11 -199 -100 -135 -100 -135 -67 7 c-36 4 -83 9 -103 13
l-37 5 -3 203 c-3 183 -5 205 -22 224 -25 27 -79 28 -106 1 -19 -19 -20 -33
-20 -215 l0 -195 -83 6 c-56 5 -96 3 -121 -6 -32 -10 -40 -10 -54 4 -10 8 -44
28 -77 43 -51 23 -73 28 -145 28 -74 0 -93 -4 -149 -30 l-64 -30 -56 28 c-112
55 -246 45 -358 -29 -50 -32 -122 -115 -123 -140 0 -11 -23 -16 -142 -30 l-58
-6 0 595 c0 533 2 595 16 601 9 3 108 6 220 6 l204 0 0 -170 c0 -185 5 -209
56 -249 25 -20 39 -21 220 -21 l194 0 30 28 c42 36 49 78 50 260 l0 152 208 0
c148 0 211 -3 220 -12 8 -8 12 -63 12 -179 l0 -168 26 -20 c35 -27 57 -26 91
3 l28 24 3 154 c2 91 -1 174 -8 204 -13 63 -63 118 -118 133 -24 7 -283 11
-742 11 -744 -1 -751 -1 -802 -47 -11 -10 -29 -36 -39 -58 -17 -37 -19 -80
-19 -652 0 -337 -3 -613 -7 -613 -5 0 -64 -7 -132 -15 -69 -8 -126 -13 -127
-12 -1 1 -29 40 -63 86 -53 74 -59 87 -47 100 43 49 58 128 36 187 -6 15 -25
45 -42 67 l-32 40 -12 191 c-14 212 -17 231 -50 298 -34 66 -79 115 -141 150
-48 27 -53 33 -53 65 l0 35 43 -5 c23 -2 76 -12 117 -22 201 -46 377 27 420
173 31 108 15 323 -29 383 -19 25 -21 43 -21 170 l0 142 59 54 c38 34 70 75
88 111 26 52 28 68 32 191 4 152 -5 194 -48 235 -38 36 -117 48 -155 23 -24
-16 -25 -15 -45 19 -30 51 -110 79 -161 56z m30 -198 c0 -46 13 -69 48 -83 35
-15 100 -1 143 30 15 10 30 19 33 19 8 0 8 -159 0 -198 -10 -48 -68 -108 -140
-143 -131 -65 -313 -60 -514 12 -123 45 -152 47 -179 14 -11 -15 -21 -41 -21
-57 0 -73 -51 -107 -148 -101 -45 4 -81 0 -112 -11 -24 -8 -47 -13 -50 -10 -3
3 -5 63 -5 132 0 111 3 133 23 177 38 83 92 127 187 154 22 6 155 16 295 21
209 7 267 13 320 29 36 11 74 27 85 35 30 23 35 20 35 -20z m2903 -159 c109
-54 197 -176 213 -292 l7 -53 -30 0 c-95 0 -213 -88 -213 -159 0 -30 43 -71
74 -71 15 0 44 16 71 40 35 30 55 40 81 40 107 0 161 -120 87 -194 -35 -35
-66 -42 -126 -26 -45 11 -51 11 -76 -7 -34 -26 -41 -83 -12 -112 20 -20 79
-41 119 -41 22 0 22 0 22 -175 l0 -176 -117 3 -118 3 -3 77 c-3 69 -5 79 -29
98 -14 11 -41 20 -59 20 l-34 0 0 80 c0 61 -5 90 -20 120 -37 72 -82 90 -270
110 -57 7 -108 14 -112 16 -12 7 -9 339 2 413 23 140 104 241 239 298 48 20
69 23 151 20 80 -3 104 -8 153 -32z m-3263 -381 c102 -27 270 -37 363 -21 l47
8 0 -110 c0 -84 -3 -111 -13 -111 -25 0 -153 -68 -193 -104 -71 -61 -126 -156
-154 -263 -11 -42 -11 -43 -55 -43 -89 0 -115 -30 -115 -135 l0 -65 -115 0
-115 0 0 181 0 180 30 26 c35 29 40 69 12 103 -20 24 -47 28 -118 15 -96 -17
-164 78 -119 165 21 41 53 60 102 60 34 0 50 -7 88 -40 54 -47 85 -51 122 -14
22 22 24 31 19 65 -4 25 -2 39 4 39 6 0 25 23 42 51 26 41 36 49 52 44 12 -3
64 -17 116 -31z m473 -424 c11 -61 3 -159 -16 -197 -28 -53 -130 -77 -232 -54
-26 6 -30 10 -27 36 5 50 48 131 92 175 43 43 133 92 160 87 9 -1 18 -20 23
-47z m2495 -79 c1 -1 2 -37 2 -81 l0 -80 -129 0 c-161 0 -161 0 -161 114 l0
82 143 -17 c78 -10 143 -18 145 -18z m-1280 -408 l3 -143 -126 0 -125 0 0 145
0 146 123 -3 122 -3 3 -142z m-1690 -104 c77 -38 129 -143 120 -244 l-3 -37
-50 63 c-93 118 -205 173 -345 172 -69 -1 -99 -9 -192 -48 -33 -14 -22 43 16
81 l34 34 188 0 c171 0 192 -2 232 -21z m3936 6 c45 -29 57 -86 57 -259 -1
-140 -14 -211 -50 -270 -24 -38 -69 -61 -100 -51 -12 3 -62 52 -113 108 -197
217 -277 284 -399 333 -33 14 -80 27 -104 30 -38 6 -47 3 -69 -19 -14 -14 -26
-36 -26 -48 0 -12 -19 -43 -43 -68 -23 -25 -52 -59 -64 -76 l-22 -30 5 80 c8
117 21 167 56 210 61 74 67 75 481 75 315 0 371 -2 391 -15z m-4084 -233 c51
-25 67 -43 212 -237 87 -116 157 -217 155 -225 -2 -16 -384 -308 -405 -309 -7
-1 -82 92 -167 207 -189 252 -205 291 -170 410 35 117 157 199 275 186 25 -3
70 -17 100 -32z m3509 -92 c77 -50 201 -176 201 -205 0 -34 -29 -81 -143 -233
-114 -153 -124 -178 -85 -219 23 -24 57 -30 87 -13 10 5 60 66 112 134 51 69
95 123 97 121 5 -4 30 -1051 32 -1262 l0 -103 -386 0 -387 0 7 53 c3 28 6 71
6 95 l0 42 190 0 c253 0 240 -12 240 207 0 178 -3 189 -70 223 -39 20 -72 58
-89 103 -8 21 -4 33 30 78 25 34 39 63 39 83 0 41 -35 76 -76 76 -30 0 -39 -9
-105 -97 -123 -168 -156 -193 -256 -193 -74 1 -720 74 -729 83 -9 9 35 399 47
411 5 6 115 -2 286 -22 247 -28 279 -30 299 -17 13 8 128 156 257 328 233 312
275 359 328 366 3 1 34 -17 68 -39z m-1915 -552 c51 -16 119 -82 136 -133 43
-132 -48 -270 -187 -282 -50 -4 -65 -1 -113 24 -172 91 -148 337 38 393 40 12
80 12 126 -2z m419 1 c21 -5 52 -23 69 -38 l30 -27 -18 -158 -18 -157 -30 -17
c-37 -20 -151 -22 -183 -4 l-22 12 21 48 c32 70 35 172 9 247 -12 33 -22 64
-24 70 -3 12 59 34 98 34 17 1 47 -4 68 -10z m-1588 -160 c53 -73 87 -112 103
-116 14 -3 99 2 190 12 127 14 166 15 172 5 8 -13 22 -171 15 -178 -2 -3 -104
-16 -226 -29 -164 -19 -227 -22 -245 -15 -12 6 -71 75 -130 154 -59 79 -111
148 -116 155 -7 8 13 28 64 67 40 30 78 55 83 55 6 0 46 -49 90 -110z m781
-217 c9 -13 14 -25 12 -27 -2 -2 -37 -6 -80 -10 l-76 -7 -6 58 c-4 33 -9 76
-11 96 -5 35 -4 37 27 42 87 14 81 18 101 -58 9 -38 24 -80 33 -94z m2058
-307 l66 -65 0 -70 0 -70 -134 0 -135 0 6 93 c4 67 9 95 21 102 13 9 105 72
108 74 1 1 31 -28 68 -64z"/>
<path d="M3743 4200 c-45 -18 -57 -81 -23 -118 30 -32 82 -30 109 4 34 43 24
86 -26 112 -25 14 -30 14 -60 2z"/>
<path d="M1026 4279 c-34 -27 -36 -77 -3 -107 31 -30 72 -28 104 4 20 20 24
31 19 57 -12 62 -70 85 -120 46z"/>
<path d="M1875 3045 c-14 -13 -25 -36 -25 -50 0 -14 11 -37 25 -50 21 -22 33
-25 93 -25 87 0 116 19 116 75 0 56 -29 75 -116 75 -60 0 -72 -3 -93 -25z"/>
<path d="M1875 2805 c-14 -13 -25 -36 -25 -50 0 -14 11 -37 25 -50 21 -22 33
-25 93 -25 87 0 116 19 116 75 0 56 -29 75 -116 75 -60 0 -72 -3 -93 -25z"/>
</g>
</svg>
